<?xml version="1.0" encoding="UTF-8"?>
<!-- Generator: Adobe Illustrator 19.1.0, SVG Export Plug-In . SVG Version: 6.00 Build 0)  -->
<svg version="1.1" id="Ebene_1" xmlns="http://www.w3.org/2000/svg" xmlns:xlink="http://www.w3.org/1999/xlink" x="0px" y="0px" viewBox="0 0 340.2 340.2" enable-background="new 0 0 340.2 340.2" xml:space="preserve">
<g>
	<circle fill="#004762" cx="169.3" cy="170.1" r="78.9"/>
	<g>
		<path fill="#004762" d="M262.5,170.1c0-2.3-0.1-4.6-0.3-6.9l21.2-11.5c-1.1-6.9-2.8-13.6-5.1-20l-24.1,0.1    c-2.2-4.8-4.8-9.4-7.8-13.8l12.6-20.6c-4.4-5.3-9.2-10.3-14.5-14.8l-20.8,12.2c-4.3-3.1-8.8-5.8-13.6-8.1l0.7-24.1    c-6.4-2.4-13-4.3-19.9-5.6l-12,21c-2.9-0.3-5.9-0.4-8.9-0.4c-2.3,0-4.6,0.1-6.9,0.3l-11.5-21.2c-6.9,1.1-13.6,2.8-20,5.1l0.1,24.1    c-4.8,2.2-9.4,4.8-13.8,7.8L97.4,81.1c-5.3,4.4-10.3,9.2-14.8,14.5l12.2,20.8c-3.1,4.3-5.8,8.8-8.1,13.6l-24.1-0.7    c-2.4,6.4-4.3,13-5.6,19.9l21,12c-0.3,2.9-0.4,5.9-0.4,8.9c0,2.3,0.1,4.6,0.3,6.9l-21.2,11.5c1.1,6.9,2.8,13.6,5.1,20l24.1-0.1    c2.2,4.8,4.8,9.4,7.8,13.8l-12.6,20.6c4.4,5.3,9.2,10.3,14.5,14.8l20.8-12.2c4.3,3.1,8.8,5.8,13.6,8.1l-0.7,24.1    c6.4,2.4,13,4.3,19.9,5.6l12-21c2.9,0.3,5.9,0.4,8.9,0.4c2.3,0,4.6-0.1,6.9-0.3l11.5,21.2c6.9-1.1,13.6-2.8,20-5.1l-0.1-24.1    c4.8-2.2,9.4-4.8,13.8-7.8l20.6,12.6c5.3-4.4,10.3-9.2,14.8-14.5l-12.2-20.8c3.1-4.3,5.8-8.8,8.1-13.6l24.1,0.7    c2.4-6.4,4.3-13,5.6-19.9l-21-12C262.3,176,262.5,173.1,262.5,170.1z M170.1,254.5c-46.6,0-84.4-37.8-84.4-84.4    c0-46.6,37.8-84.4,84.4-84.4c46.6,0,84.4,37.8,84.4,84.4C254.5,216.7,216.7,254.5,170.1,254.5z"/>
	</g>
	<path fill="#FFFFFF" d="M159.1,136.8c-5.7,0-10.3,4.6-10.3,10.3c0,5.8,4.5,10.3,10.3,10.3c5.8,0,10.3-4.5,10.3-10.3   C169.4,141.3,164.9,136.8,159.1,136.8z M164.4,147.1c0,3.2-2.2,5.5-5.3,5.5c-3,0-5.3-2.3-5.3-5.5c0-3.1,2.3-5.5,5.3-5.5   C162.1,141.5,164.4,143.9,164.4,147.1z"/>
	<path fill="#FFFFFF" d="M194.9,147.1c0-5.7-4.6-10.3-10.3-10.3c-5.7,0-10.3,4.6-10.3,10.3c0,0.1,0,0.2,0,0.3h0V167h5v-11.1   c1.5,0.9,3.3,1.4,5.3,1.4C190.4,157.3,194.9,152.8,194.9,147.1z M184.7,152.6c-3,0-5.3-2.3-5.3-5.5c0-3.1,2.3-5.5,5.3-5.5   c3,0,5.3,2.4,5.3,5.5C189.9,150.2,187.7,152.6,184.7,152.6z"/>
	<path fill="#FFFFFF" d="M159.1,171.4c-5.8,0-10.3,4.5-10.3,10.3c0,5.8,4.5,10.3,10.3,10.3c5.8,0,10.3-4.5,10.3-10.3   C169.4,176,164.9,171.4,159.1,171.4z M164.4,181.7c0,3.2-2.2,5.5-5.3,5.5c-3,0-5.3-2.3-5.3-5.5c0-3.1,2.3-5.5,5.3-5.5   S164.4,178.6,164.4,181.7z"/>
	<rect x="174.5" y="171.9" fill="#FFFFFF" width="5" height="19.6"/>
	<path fill="#FFFFFF" d="M198.4,172.3L198.4,172.3c-0.9-0.5-2-0.9-3.4-0.9h-2.1c-1.4,0-2.6,0.5-3.4,0.9c-2.4,1.2-3.6,3.8-3.6,7.9   v11.5h5v-10.9c0-3.6,0.6-4.6,2.7-4.6h0.7c2.1,0,2.7,1,2.7,4.6v10.9h5v-11.5C202,176,200.8,173.5,198.4,172.3z"/>
	<polygon fill="#FFFFFF" points="135.5,137 130.6,137 130.6,144.6 123,144.6 123,149.5 130.6,149.5 130.6,157.1 135.5,157.1    135.5,149.5 143.1,149.5 143.1,144.6 135.5,144.6  "/>
	<polygon fill="#FFFFFF" points="220.4,171.7 215.4,171.7 215.4,179.3 207.8,179.3 207.8,184.2 215.4,184.2 215.4,191.8    220.4,191.8 220.4,184.2 228,184.2 228,179.3 220.4,179.3  "/>
	<path fill="#FFFFFF" d="M170.1,85.7c-46.6,0-84.4,37.8-84.4,84.4c0,46.6,37.8,84.4,84.4,84.4c46.6,0,84.4-37.8,84.4-84.4   C254.5,123.5,216.7,85.7,170.1,85.7z M220.3,230.3v-33.8h-4.9v37.6c-4.2,3.1-8.8,5.7-13.6,7.9v-45.5H197V244c-2,0.8-4.1,1.4-6.2,2   v-49.5H186v50.7c-2.1,0.5-4.3,0.8-6.5,1.1v-51.9h-4.9v52.3c-1.7,0.1-3.5,0.2-5.3,0.2c-15.4,0-29.7-4.4-41.8-12v-29.8h-4.9v26.5   c-19.6-14.4-32.3-37.5-32.3-63.6c0-7.1,1-14,2.7-20.6h24.4v-4.9H94.6c6.3-18.5,19.3-33.9,36-43.3V132h4.9V98.8   c10.3-4.9,21.7-7.6,33.8-7.6c1.8,0,3.5,0.1,5.3,0.2V132h4.9V91.8c30.2,3.9,55,24.8,64.6,52.8h-44.4v4.9h45.9   c1.8,6.6,2.7,13.5,2.7,20.6c0,3.1-0.2,6.2-0.6,9.2h-14.8v4.9H247C243.6,202.5,234,218.7,220.3,230.3z"/>
	<path fill="#FFFFFF" d="M132.9,171.4c-5.7,0-10.3,4.6-10.3,10.3c0,0.3,0,0.6,0,0.9h0v19.6h5v-11.6c1.5,0.9,3.3,1.4,5.3,1.4   c5.8,0,10.3-4.5,10.3-10.3C143.2,176,138.7,171.4,132.9,171.4z M132.9,187.2c-3,0-5.3-2.3-5.3-5.5c0-3.1,2.3-5.5,5.3-5.5   c3,0,5.3,2.4,5.3,5.5C138.2,184.9,136,187.2,132.9,187.2z"/>
</g>
</svg>